# xmcd
#
# Track frame offsets:
#	150
#	14728
#	26968
#	49075
#	64093
#	81706
#	101928
#	117205
#	142158
#	163635
#	184474
#	203117
#	219361
#	237338
#
# Disc length: 3443 seconds
#
# Revision: 0
# Processed by: cddbd v1.5.2PL0 Copyright (c) Steve Scherf et al.
# Submitted via: dBpowerAMP V4.0
#
DISCID=dc0d710e
DTITLE=Tormento - ALIBI
DYEAR=2007
DGENRE=hip hop soul
TTITLE0=Non c'è n'è
TTITLE1=The bootyshaker
TTITLE2=A fuoco
TTITLE3=Ancora
TTITLE4=Resta qui
TTITLE5=Sei me
TTITLE6=Bomba
TTITLE7=Ma dai!
TTITLE8=Lo fai benissimo
TTITLE9=Come sei
TTITLE10=Alibi
TTITLE11=Karma
TTITLE12=Dipende da te
TTITLE13=Cosi some sono
EXTD=ALIBI
EXTT0=
EXTT1=
EXTT2=
EXTT3=
EXTT4=
EXTT5=
EXTT6=
EXTT7=
EXTT8=
EXTT9=
EXTT10=
EXTT11=
EXTT12=
EXTT13=
PLAYORDER=
